<svg id="visual" viewBox="0 0 992 700" width="992" height="700" xmlns="http://www.w3.org/2000/svg" xmlns:xlink="http://www.w3.org/1999/xlink" version="1.1"><path d="M0 197L331 211L661 239L992 225L992 0L661 0L331 0L0 0Z" fill="#ffffff"></path><path d="M0 344L331 351L661 379L992 358L992 223L661 237L331 209L0 195Z" fill="#e6e9e7"></path><path d="M0 589L331 582L661 596L992 582L992 356L661 377L331 349L0 342Z" fill="#cdd3d0"></path><path d="M0 701L331 701L661 701L992 701L992 580L661 594L331 580L0 587Z" fill="#b5beb9"></path></svg>